<svg width="875" height="646" viewBox="0 0 875 646" fill="none" xmlns="http://www.w3.org/2000/svg">
<g style="mix-blend-mode:multiply">
<path d="M845.852 584.395C846.758 583.221 847.564 581.981 848.321 580.744C852.819 573.395 856.544 562.572 855.693 547.078L826.149 9.13824L793.925 10.908C668.315 17.8065 542.658 24.7076 417.049 31.6061L8.38357 54.0499L37.9272 591.99C38.7781 607.483 44.0837 618.373 48.99 624.643C50.0347 625.992 51.124 627.268 52.3546 628.467C57.3329 633.397 64.0921 637.174 72.7048 636.701L826.021 595.329C835.021 594.835 841.229 590.345 845.8 584.328L845.852 584.395ZM48.6414 101.344L47.2938 76.8061L64.2288 75.876L65.5764 100.414L48.6414 101.344ZM97.0271 98.6866L95.6795 74.1488L112.614 73.2187L113.962 97.7565L97.0271 98.6866ZM145.413 96.0293L144.065 71.4914L161 70.5614L162.348 95.0992L145.413 96.0293ZM193.798 93.3719L192.451 68.8341L209.386 67.904L210.733 92.4419L193.798 93.3719ZM242.184 90.7146L240.836 66.1768L257.771 65.2467L259.119 89.7845L242.184 90.7146ZM290.57 88.0573L289.222 63.5194L306.157 62.5894L307.505 87.1272L290.57 88.0573ZM338.955 85.3999L337.608 60.8621L354.543 59.932L355.89 84.4699L338.955 85.3999ZM387.341 82.7426L385.993 58.2047L402.928 57.2747L404.276 81.8125L387.341 82.7426ZM435.727 80.0852L434.379 55.5474L451.314 54.6173L452.662 79.1552L435.727 80.0852ZM484.112 77.4279L482.765 52.8901L499.7 51.96L501.047 76.4978L484.112 77.4279ZM532.498 74.7706L531.15 50.2327L548.085 49.3027L549.433 73.8405L532.498 74.7706ZM580.884 72.1132L579.536 47.5754L596.471 46.6453L597.819 71.1832L580.884 72.1132ZM629.269 69.4559L627.922 44.918L644.857 43.988L646.204 68.5258L629.269 69.4559ZM677.655 66.7985L676.307 42.2607L693.242 41.3306L694.59 65.8685L677.655 66.7985ZM726.041 64.1412L724.693 39.6034L741.628 38.6733L742.976 63.2111L726.041 64.1412ZM774.426 61.4839L773.079 36.946L790.014 36.016L791.361 60.5538L774.426 61.4839Z" fill="#D0D2D3"/>
</g>
<g filter="url(#filter0_d_4_486)">
<path d="M846.715 584.436C847.621 583.261 848.426 582.022 849.184 580.785C853.682 573.435 857.407 562.613 856.556 547.119L827.012 9.1792L794.787 10.949C669.178 17.8474 543.52 24.7486 417.911 31.647L9.24602 54.0909L38.7897 592.03C39.6406 607.524 44.9462 618.414 49.8525 624.684C50.8973 626.033 51.9865 627.309 53.2171 628.507C58.1954 633.438 64.9546 637.215 73.5672 636.742L826.932 595.368C835.932 594.873 842.14 590.383 846.711 584.366L846.715 584.436ZM49.5523 101.382L48.2047 76.8444L65.1397 75.9143L66.4873 100.452L49.5523 101.382ZM97.9379 98.7249L96.5903 74.1871L113.525 73.257L114.873 97.7948L97.9379 98.7249ZM146.324 96.0676L144.976 71.5297L161.911 70.5997L163.259 95.1375L146.324 96.0676ZM194.709 93.4102L193.362 68.8724L210.297 67.9423L211.644 92.4802L194.709 93.4102ZM243.095 90.7529L241.747 66.2151L258.682 65.285L260.03 89.8228L243.095 90.7529ZM291.481 88.0956L290.133 63.5577L307.068 62.6276L308.416 87.1655L291.481 88.0956ZM339.866 85.4382L338.519 60.9004L355.454 59.9703L356.801 84.5081L339.866 85.4382ZM388.252 82.7809L386.904 58.243L403.839 57.313L405.187 81.8508L388.252 82.7809ZM436.638 80.1235L435.29 55.5857L452.225 54.6556L453.573 79.1935L436.638 80.1235ZM485.023 77.4662L483.676 52.9284L500.611 51.9983L501.958 76.5361L485.023 77.4662ZM533.409 74.8089L532.061 50.271L548.996 49.3409L550.344 73.8788L533.409 74.8089ZM581.795 72.1515L580.447 47.6137L597.382 46.6836L598.73 71.2214L581.795 72.1515ZM630.18 69.4942L628.833 44.9563L645.768 44.0263L647.115 68.5641L630.18 69.4942ZM678.566 66.8368L677.218 42.299L694.153 41.3689L695.501 65.9068L678.566 66.8368ZM726.951 64.1795L725.604 39.6417L742.539 38.7116L743.886 63.2494L726.951 64.1795ZM775.337 61.5222L773.99 36.9843L790.925 36.0543L792.272 60.5921L775.337 61.5222Z" fill="url(#paint0_linear_4_486)"/>
</g>
<path d="M97.6051 327.697L685.008 295.437L684.915 293.753L97.5127 326.013L97.6051 327.697Z" fill="#BBBDBF"/>
<path d="M94.8803 278.085L682.283 245.825L682.17 243.764L94.767 276.024L94.8803 278.085Z" fill="#BBBDBF"/>
<path d="M92.1347 228.096L679.537 195.836L679.445 194.152L92.0422 226.412L92.1347 228.096Z" fill="#BBBDBF"/>
<path d="M98.8722 376.734L686.275 344.473L686.218 343.443L98.8156 375.703L98.8722 376.734Z" fill="#BBBDBF"/>
<path d="M614.436 104.275C614.548 102.461 613.226 100.859 611.488 100.697C609.739 100.535 608.237 101.879 608.136 103.705C608.023 105.519 609.345 107.133 611.095 107.283C612.833 107.445 614.334 106.101 614.447 104.275L614.436 104.275Z" fill="#060500" fill-opacity="0.62"/>
<path d="M633.172 83.8561L612.887 106.02C611.044 107.182 607.995 104.124 608.858 101.983L629.143 79.8316L633.16 83.8676L633.172 83.8561Z" fill="url(#paint1_linear_4_486)"/>
<path style="mix-blend-mode:multiply" d="M633.172 83.8561L612.887 106.02C611.044 107.182 607.995 104.124 608.858 101.983L629.143 79.8316L633.16 83.8676L633.172 83.8561Z" fill="url(#paint2_linear_4_486)"/>
<path d="M657.639 78.1105C658.253 90.4967 649.235 99.6756 637.481 98.5985C625.727 97.5213 615.696 86.6033 615.071 74.2046C614.446 61.8179 623.475 52.6395 635.229 53.7286C646.983 54.8057 657.014 65.7237 657.639 78.1105Z" fill="#8A0000"/>
<path d="M658.804 78.5105C659.429 90.8972 650.4 100.064 638.646 98.9865C626.892 97.9094 616.861 86.9914 616.247 74.6052C615.622 62.2185 624.651 53.0401 636.405 54.1292C648.159 55.2063 658.19 66.1243 658.815 78.511L658.804 78.5105Z" fill="url(#paint3_radial_4_486)"/>
<path d="M657.57 78.2845C656.974 66.5403 647.485 56.1884 636.37 55.1589C636.003 55.1304 635.647 55.1264 635.291 55.1104C646.382 56.1749 655.826 66.5007 656.423 78.2208C656.991 89.5788 649.017 98.062 638.443 97.6824C638.466 97.6834 638.489 97.6845 638.512 97.6855C649.626 98.703 658.167 90.0166 657.571 78.2725L657.57 78.2845Z" fill="#F87979"/>
<path d="M669.643 59.343L646.664 85.1033C639.635 91.9315 621.797 76.9529 628.777 68.3277L651.757 42.5675L669.643 59.343Z" fill="url(#paint4_linear_4_486)"/>
<path d="M629.123 68.1765L651.873 42.6053L651.839 42.5677L628.796 68.4625C620.784 77.1714 639.162 92.1682 646.715 85.3632C639.451 91.4114 622.252 76.7082 629.123 68.1765Z" fill="url(#paint5_linear_4_486)"/>
<path d="M676.113 54.3035C676.585 63.7283 669.714 70.7063 660.773 69.8868C651.832 69.0674 644.193 60.7571 643.721 51.3323C643.26 41.908 650.12 34.9294 659.061 35.7489C668.002 36.5684 675.629 44.8782 676.113 54.3035Z" fill="#990000"/>
<path d="M675.803 53.6146C676.251 62.4879 669.788 69.0416 661.373 68.2696C652.958 67.4977 645.78 59.6866 645.332 50.8132C644.896 41.9524 651.358 35.3867 659.774 36.1587C668.189 36.9307 675.367 44.7418 675.814 53.6151L675.803 53.6146Z" fill="url(#paint6_linear_4_486)"/>
<path d="M675.052 53.4668C674.629 44.9797 667.777 37.5144 659.749 36.7681C659.382 36.7396 659.026 36.7356 658.67 36.7196C666.663 37.4883 673.48 44.952 673.905 53.4031C674.313 61.5046 668.714 67.5675 661.227 67.4591C661.25 67.4601 661.273 67.4611 661.296 67.4622C669.323 68.1964 675.488 61.9304 675.053 53.4427L675.052 53.4668Z" fill="#FE9696"/>
<defs>
<filter id="filter0_d_4_486" x="0.0460939" y="0.979199" width="877.831" height="658.003" filterUnits="userSpaceOnUse" color-interpolation-filters="sRGB">
<feFlood flood-opacity="0" result="BackgroundImageFix"/>
<feColorMatrix in="SourceAlpha" type="matrix" values="0 0 0 0 0 0 0 0 0 0 0 0 0 0 0 0 0 0 127 0" result="hardAlpha"/>
<feOffset dx="6" dy="7"/>
<feGaussianBlur stdDeviation="7.6"/>
<feComposite in2="hardAlpha" operator="out"/>
<feColorMatrix type="matrix" values="0 0 0 0 0 0 0 0 0 0 0 0 0 0 0 0 0 0 0.33 0"/>
<feBlend mode="normal" in2="BackgroundImageFix" result="effect1_dropShadow_4_486"/>
<feBlend mode="normal" in="SourceGraphic" in2="effect1_dropShadow_4_486" result="shape"/>
</filter>
<linearGradient id="paint0_linear_4_486" x1="301.019" y1="-120.856" x2="757.573" y2="640.502" gradientUnits="userSpaceOnUse">
<stop stop-color="#FCF4D4"/>
<stop offset="0.46" stop-color="#FCF4D6"/>
<stop offset="0.72" stop-color="#FDF7DE"/>
<stop offset="0.93" stop-color="#FEFCEC"/>
<stop offset="1" stop-color="#FFFFF3"/>
</linearGradient>
<linearGradient id="paint1_linear_4_486" x1="621.744" y1="95.4221" x2="617.526" y2="91.5616" gradientUnits="userSpaceOnUse">
<stop stop-color="#696969"/>
<stop offset="0.26" stop-color="#FCFCFC"/>
<stop offset="0.55" stop-color="#D4D4D4"/>
<stop offset="0.78" stop-color="#434343"/>
<stop offset="0.82" stop-color="#474747"/>
<stop offset="0.87" stop-color="#535353"/>
<stop offset="0.91" stop-color="#676767"/>
<stop offset="0.96" stop-color="#848484"/>
<stop offset="1" stop-color="#A8A8A8"/>
</linearGradient>
<linearGradient id="paint2_linear_4_486" x1="616.556" y1="96.8555" x2="626.029" y2="87.4168" gradientUnits="userSpaceOnUse">
<stop stop-color="white"/>
<stop offset="1"/>
</linearGradient>
<radialGradient id="paint3_radial_4_486" cx="0" cy="0" r="1" gradientUnits="userSpaceOnUse" gradientTransform="translate(645.041 74.8735) rotate(5.24426) scale(40.3523 41.9904)">
<stop stop-color="#FF5555"/>
<stop offset="0.08" stop-color="#FA5151"/>
<stop offset="0.17" stop-color="#EE4747"/>
<stop offset="0.25" stop-color="#DA3636"/>
<stop offset="0.34" stop-color="#BD1E1E"/>
<stop offset="0.42" stop-color="#990000"/>
<stop offset="0.53" stop-color="#A80000"/>
<stop offset="0.67" stop-color="#DD3636"/>
<stop offset="0.83" stop-color="#8C0000"/>
</radialGradient>
<linearGradient id="paint4_linear_4_486" x1="637.576" y1="57.1844" x2="656.99" y2="75.3268" gradientUnits="userSpaceOnUse">
<stop stop-color="#B40000"/>
<stop offset="0.08" stop-color="#A20000"/>
<stop offset="0.16" stop-color="#960000"/>
<stop offset="0.25" stop-color="#920000"/>
<stop offset="0.58" stop-color="#B40000"/>
<stop offset="0.87" stop-color="#FF8484"/>
<stop offset="1" stop-color="#AD2828"/>
</linearGradient>
<linearGradient id="paint5_linear_4_486" x1="637.385" y1="58.0949" x2="655.971" y2="75.4201" gradientUnits="userSpaceOnUse">
<stop stop-color="#900000"/>
<stop offset="0.06" stop-color="#850000"/>
<stop offset="0.15" stop-color="#790000"/>
<stop offset="0.25" stop-color="#750000"/>
<stop offset="0.58" stop-color="#900000"/>
<stop offset="0.87" stop-color="#DE5757"/>
<stop offset="1" stop-color="#9E0C0C"/>
</linearGradient>
<linearGradient id="paint6_linear_4_486" x1="648.864" y1="40.2566" x2="673.298" y2="63.0846" gradientUnits="userSpaceOnUse">
<stop stop-color="#D10606"/>
<stop offset="0.11" stop-color="#DA1717"/>
<stop offset="0.34" stop-color="#E83434"/>
<stop offset="0.56" stop-color="#F34848"/>
<stop offset="0.78" stop-color="#F95454"/>
<stop offset="1" stop-color="#FC5959"/>
</linearGradient>
</defs>
</svg>
