<svg width="327" height="362" viewBox="0 0 327 362" fill="none" xmlns="http://www.w3.org/2000/svg">
<path d="M324.97 27.0294C327.26 63.6594 326.92 101.169 325.25 138.609C322.83 192.819 315.15 352.569 314.77 360.919C314.88 360.919 314.99 360.919 315.1 360.919C315.1 360.919 323.1 193.919 325.59 138.249C327.27 100.799 327.6 63.2994 325.32 26.6694L324.97 27.0294Z" fill="#E338DC"/>
<path d="M315.25 361.31C236.95 359.1 207.56 355.2 169.72 348.18C133.61 341.48 39.8799 311.05 15.9499 283.18C-5.67009 258.01 -0.910094 104.52 4.90991 9.36963C4.90991 9.36963 167.98 16.7196 222.33 19.1296C257.39 20.6796 290.66 23.4396 324.96 27.0396C327.25 63.6696 326.91 101.18 325.24 138.62C322.75 194.29 315.25 361.31 315.25 361.31Z" fill="url(#paint0_linear_83_101)"/>
<path style="mix-blend-mode:overlay" opacity="0.5" d="M315.25 361.31C236.95 359.1 207.56 355.2 169.72 348.18C133.61 341.48 39.8799 311.05 15.9499 283.18C-5.67009 258.01 -0.910094 104.52 4.90991 9.36963C4.90991 9.36963 167.98 16.7196 222.33 19.1296C257.39 20.6796 290.66 23.4396 324.96 27.0396C327.25 63.6696 326.91 101.18 325.24 138.62C322.75 194.29 315.25 361.31 315.25 361.31Z" fill="url(#paint1_radial_83_101)"/>
<path style="mix-blend-mode:soft-light" opacity="0.2" d="M315.25 361.31C236.95 359.1 207.56 355.2 169.72 348.18C133.61 341.48 39.8799 311.05 15.9499 283.18C-5.67009 258.01 -0.910094 104.52 4.90991 9.36963C4.90991 9.36963 167.98 16.7196 222.33 19.1296C257.39 20.6796 290.66 23.4396 324.96 27.0396C327.25 63.6696 326.91 101.18 325.24 138.62C322.75 194.29 315.25 361.31 315.25 361.31Z" fill="url(#paint2_linear_83_101)"/>
<path d="M325.31 26.6795C291.01 23.0795 257.74 20.3295 222.68 18.7695C168.32 16.3595 4.93992 8.99951 4.93992 8.99951C4.93992 9.11951 4.91992 9.24951 4.91992 9.36951C12.6299 9.71951 169.33 16.7795 222.34 19.1295C257.4 20.6795 290.67 23.4395 324.97 27.0395L325.32 26.6795H325.31Z" fill="url(#paint3_linear_83_101)"/>
<path d="M77.6298 318.93C51.0298 308.05 27.0998 295.43 16.6098 283.21C-5.01022 258.04 -0.250216 104.55 5.56978 9.39951L4.93978 8.99951C-0.880217 104.15 -5.67021 258.01 15.9498 283.18C26.5298 295.5 50.7598 308.22 77.6198 319.16V318.93H77.6298Z" fill="#A800A1"/>
<path d="M71.6504 316.87C106.93 331.97 148.38 344.22 169.72 348.17C132.79 338.8 99.4904 316.97 73.4704 276.51L71.6604 316.86L71.6504 316.87Z" fill="#FCFCFC"/>
<path d="M73.4596 276.52C54.6796 285.57 28.0396 294.37 17.5796 284.3C16.9796 283.72 16.1696 283.37 15.5996 282.72C15.7196 282.87 15.8296 283.04 15.9496 283.18C25.7396 294.58 47.2196 306.41 71.6496 316.87L73.4596 276.52Z" fill="url(#paint4_linear_83_101)"/>
<path d="M15.9504 283.179C39.8704 311.039 133.61 341.469 169.72 348.179C132.79 338.809 99.4303 318.299 73.4103 277.839C53.6103 287.389 26.5304 295.209 15.6104 282.729C15.7304 282.879 15.8404 283.049 15.9604 283.189L15.9504 283.179Z" fill="url(#paint5_linear_83_101)"/>
<path d="M286.75 23.3694C299.57 24.4794 313.49 25.8594 324.25 27.5794C326.59 50.3294 326.59 77.3194 326.38 103.159C326.86 77.5794 326.53 52.0994 324.96 27.0294C312.13 25.6794 299.44 24.4494 286.75 23.3594V23.3694Z" fill="white"/>
<path d="M154.081 60.0812C154.085 58.5596 152.85 57.3218 151.329 57.3177C149.797 57.3139 148.559 58.5486 148.566 60.0798C148.561 61.6014 149.797 62.8491 151.328 62.8429C152.849 62.8471 154.087 61.6124 154.091 60.0808L154.081 60.0812Z" fill="#060500" fill-opacity="0.62"/>
<path d="M169.357 41.873L152.847 61.876C151.304 62.9839 148.491 60.6634 149.131 58.814L165.642 38.8209L169.348 41.8834L169.357 41.873Z" fill="url(#paint6_linear_83_101)"/>
<path style="mix-blend-mode:multiply" d="M169.357 41.873L152.847 61.876C151.304 62.9839 148.491 60.6634 149.131 58.814L165.642 38.8209L169.348 41.8834L169.357 41.873Z" fill="url(#paint7_linear_83_101)"/>
<path d="M190.405 35.5969C191.581 45.8856 184.205 54.2226 173.915 54.2078C163.624 54.193 154.324 45.8376 153.137 35.5393C151.951 25.2509 159.337 16.9136 169.628 16.9383C179.918 16.9531 189.219 25.3086 190.405 35.5969Z" fill="#8A0000"/>
<path d="M191.448 35.8517C192.634 46.14 185.247 54.4674 174.957 54.4526C164.667 54.4378 155.366 46.0824 154.19 35.7937C153.004 25.5053 160.39 17.168 170.681 17.1927C180.971 17.2075 190.271 25.563 191.457 35.8513L191.448 35.8517Z" fill="url(#paint8_radial_83_101)"/>
<path d="M190.376 35.8483C189.255 26.1477 180.486 18.2697 170.786 18.2494C170.466 18.2533 170.157 18.2767 169.847 18.2901C179.528 18.3413 188.256 26.201 189.376 35.8816C190.453 45.2638 183.968 52.9015 174.77 53.3799C174.79 53.3791 174.81 53.3782 174.83 53.3774C184.529 53.3877 191.496 45.5389 190.375 35.8383L190.376 35.8483Z" fill="#F87979"/>
<path d="M199.919 19.2998L181.246 42.5195C175.48 48.7448 159.172 37.5899 164.803 29.8691L183.476 6.6494L199.919 19.2998Z" fill="url(#paint9_linear_83_101)"/>
<path d="M165.071 29.5973L183.507 6.6682L183.475 6.63952L164.802 29.8592C158.295 37.6881 175.02 48.7548 181.226 42.5404C175.232 48.105 159.545 37.1935 165.071 29.5973Z" fill="url(#paint10_linear_83_101)"/>
<path d="M205.322 14.8717C206.221 22.7001 200.601 29.0392 192.773 29.0279C184.945 29.0165 177.863 22.657 176.964 14.8286C176.074 6.99974 181.685 0.661038 189.513 0.672364C197.341 0.683691 204.412 7.04367 205.322 14.8717Z" fill="#990000"/>
<path d="M205.019 14.3345C205.868 21.7046 200.581 27.659 193.214 27.6477C185.846 27.6365 179.191 21.6588 178.342 14.2887C177.502 6.92807 182.789 0.963738 190.157 0.974986C197.524 0.986234 204.179 6.9639 205.029 14.334L205.019 14.3345Z" fill="url(#paint11_linear_83_101)"/>
<path d="M204.368 14.3324C203.564 7.32066 197.232 1.63929 190.224 1.62246C189.904 1.62632 189.595 1.64972 189.285 1.66313C196.264 1.70124 202.565 7.38391 203.368 14.3657C204.138 21.0586 199.59 26.5105 193.084 26.9825C193.104 26.9816 193.124 26.9807 193.144 26.9799C200.151 26.9867 205.181 21.3238 204.367 14.3125L204.368 14.3324Z" fill="#FE9696"/>
<defs>
<linearGradient id="paint0_linear_83_101" x1="45.0359" y1="312.707" x2="306.13" y2="23.6438" gradientUnits="userSpaceOnUse">
<stop stop-color="#F799FF"/>
<stop offset="0.03" stop-color="#F589F7"/>
<stop offset="0.08" stop-color="#EF79EA"/>
<stop offset="0.12" stop-color="#ED74E8"/>
<stop offset="0.34" stop-color="#FD99FF"/>
<stop offset="0.59" stop-color="#FFA3F6"/>
<stop offset="0.82" stop-color="#FFACFC"/>
<stop offset="0.87" stop-color="#FDA5F4"/>
<stop offset="0.93" stop-color="#F892F4"/>
<stop offset="1" stop-color="#F079F2"/>
</linearGradient>
<radialGradient id="paint1_radial_83_101" cx="0" cy="0" r="1" gradientUnits="userSpaceOnUse" gradientTransform="translate(156.284 183.676) rotate(2.57) scale(240.99 240.99)">
<stop stop-color="white"/>
<stop offset="0.09" stop-color="#F7F7F7"/>
<stop offset="0.22" stop-color="#E4E4E4"/>
<stop offset="0.37" stop-color="#C4C4C4"/>
<stop offset="0.54" stop-color="#979797"/>
<stop offset="0.73" stop-color="#5E5E5E"/>
<stop offset="0.93" stop-color="#1A1A1A"/>
<stop offset="1"/>
</radialGradient>
<linearGradient id="paint2_linear_83_101" x1="-3.06101" y1="178.195" x2="322.801" y2="192.821" gradientUnits="userSpaceOnUse">
<stop/>
<stop offset="0.54" stop-color="white"/>
<stop offset="0.58" stop-color="#F7F7F7"/>
<stop offset="0.64" stop-color="#E4E4E4"/>
<stop offset="0.71" stop-color="#C4C4C4"/>
<stop offset="0.79" stop-color="#979797"/>
<stop offset="0.88" stop-color="#5E5E5E"/>
<stop offset="0.97" stop-color="#1A1A1A"/>
<stop offset="1"/>
</linearGradient>
<linearGradient id="paint3_linear_83_101" x1="4.90992" y1="18.0195" x2="325.31" y2="18.0195" gradientUnits="userSpaceOnUse">
<stop offset="0.79" stop-color="#DE55D9"/>
<stop offset="0.955" stop-color="#C44AA2"/>
<stop offset="1" stop-color="#C44AA2"/>
</linearGradient>
<linearGradient id="paint4_linear_83_101" x1="41.9775" y1="302.56" x2="61.5208" y2="269.473" gradientUnits="userSpaceOnUse">
<stop offset="0.11" stop-color="#A80083"/>
<stop offset="0.47" stop-color="#FF1CE8"/>
<stop offset="1" stop-color="#AB009A"/>
</linearGradient>
<linearGradient id="paint5_linear_83_101" x1="85.1872" y1="328.083" x2="104.135" y2="296" gradientUnits="userSpaceOnUse">
<stop stop-color="#D67FDE"/>
<stop offset="0.14" stop-color="#AD00C9"/>
<stop offset="0.26" stop-color="#D613CE"/>
<stop offset="0.51" stop-color="#F745E5"/>
<stop offset="0.56" stop-color="#FC50FF"/>
<stop offset="0.65" stop-color="#FF53EE"/>
<stop offset="0.74" stop-color="#FF5EDC"/>
<stop offset="0.82" stop-color="#FF71F1"/>
<stop offset="0.9" stop-color="#FD8BFF"/>
<stop offset="0.95" stop-color="#FFA1FB"/>
</linearGradient>
<linearGradient id="paint6_linear_83_101" x1="160.008" y1="52.3748" x2="156.282" y2="49.2987" gradientUnits="userSpaceOnUse">
<stop stop-color="#696969"/>
<stop offset="0.26" stop-color="#FCFCFC"/>
<stop offset="0.55" stop-color="#D4D4D4"/>
<stop offset="0.78" stop-color="#434343"/>
<stop offset="0.82" stop-color="#474747"/>
<stop offset="0.87" stop-color="#535353"/>
<stop offset="0.91" stop-color="#676767"/>
<stop offset="0.96" stop-color="#848484"/>
<stop offset="1" stop-color="#A8A8A8"/>
</linearGradient>
<linearGradient id="paint7_linear_83_101" x1="155.567" y1="53.96" x2="162.924" y2="45.0483" gradientUnits="userSpaceOnUse">
<stop stop-color="white"/>
<stop offset="1"/>
</linearGradient>
<radialGradient id="paint8_radial_83_101" cx="0" cy="0" r="1" gradientUnits="userSpaceOnUse" gradientTransform="translate(179.275 33.8521) rotate(0.0902264) scale(35.18)">
<stop stop-color="#FF5555"/>
<stop offset="0.08" stop-color="#FA5151"/>
<stop offset="0.17" stop-color="#EE4747"/>
<stop offset="0.25" stop-color="#DA3636"/>
<stop offset="0.34" stop-color="#BD1E1E"/>
<stop offset="0.42" stop-color="#990000"/>
<stop offset="0.53" stop-color="#A80000"/>
<stop offset="0.67" stop-color="#DD3636"/>
<stop offset="0.83" stop-color="#8C0000"/>
</radialGradient>
<linearGradient id="paint9_linear_83_101" x1="171.887" y1="19.9106" x2="189.064" y2="34.3777" gradientUnits="userSpaceOnUse">
<stop stop-color="#B40000"/>
<stop offset="0.08" stop-color="#A20000"/>
<stop offset="0.16" stop-color="#960000"/>
<stop offset="0.25" stop-color="#920000"/>
<stop offset="0.58" stop-color="#B40000"/>
<stop offset="0.87" stop-color="#FF8484"/>
<stop offset="1" stop-color="#AD2828"/>
</linearGradient>
<linearGradient id="paint10_linear_83_101" x1="171.725" y1="20.6105" x2="188.084" y2="34.3862" gradientUnits="userSpaceOnUse">
<stop stop-color="#900000"/>
<stop offset="0.06" stop-color="#850000"/>
<stop offset="0.15" stop-color="#790000"/>
<stop offset="0.25" stop-color="#750000"/>
<stop offset="0.58" stop-color="#900000"/>
<stop offset="0.87" stop-color="#DE5757"/>
<stop offset="1" stop-color="#9E0C0C"/>
</linearGradient>
<linearGradient id="paint11_linear_83_101" x1="180.87" y1="5.21469" x2="202.491" y2="23.4188" gradientUnits="userSpaceOnUse">
<stop stop-color="#D10606"/>
<stop offset="0.11" stop-color="#DA1717"/>
<stop offset="0.34" stop-color="#E83434"/>
<stop offset="0.56" stop-color="#F34848"/>
<stop offset="0.78" stop-color="#F95454"/>
<stop offset="1" stop-color="#FC5959"/>
</linearGradient>
</defs>
</svg>
