<svg width="368" height="413" viewBox="0 0 368 413" fill="none" xmlns="http://www.w3.org/2000/svg">
<g filter="url(#filter0_d_83_127)">
<path d="M358.984 55.3726C358.059 92.0624 354.436 129.399 349.495 166.549C342.339 220.339 320.705 378.803 319.595 387.088C319.705 387.098 319.814 387.107 319.924 387.117C319.924 387.117 342.512 221.458 349.866 166.22C354.817 129.061 358.429 91.7336 359.364 55.0446L358.984 55.3726Z" fill="#E3BF38"/>
<path d="M320.04 387.518C242.234 378.463 213.298 372.005 176.218 361.7C140.833 351.864 50.1263 313.346 28.7278 283.489C9.39412 256.523 27.5719 104.039 41.6987 9.76329C41.6987 9.76329 203.499 31.3597 257.43 38.5181C292.219 43.1312 325.12 48.793 358.973 55.3816C358.048 92.0715 354.426 129.408 349.485 166.558C342.131 221.796 320.04 387.518 320.04 387.518Z" fill="url(#paint0_linear_83_127)"/>
<path style="mix-blend-mode:overlay" opacity="0.5" d="M320.04 387.518C242.234 378.463 213.298 372.005 176.218 361.7C140.833 351.864 50.1263 313.346 28.7278 283.489C9.39412 256.523 27.5719 104.039 41.6987 9.76329C41.6987 9.76329 203.499 31.3597 257.43 38.5181C292.219 43.1312 325.12 48.793 358.973 55.3816C358.048 92.0715 354.426 129.408 349.485 166.558C342.131 221.796 320.04 387.518 320.04 387.518Z" fill="url(#paint1_radial_83_127)"/>
<path d="M359.354 55.0536C325.5 48.4649 292.599 42.8131 257.81 38.19C203.87 31.0308 41.7611 9.39726 41.7611 9.39726C41.7506 9.5168 41.7193 9.64455 41.7088 9.76409C49.3586 10.7877 204.839 31.5376 257.44 38.5189C292.23 43.132 325.13 48.7937 358.983 55.3824L359.364 55.0545L359.354 55.0536Z" fill="url(#paint2_linear_83_127)"/>
<path d="M87.0414 324.5C61.4959 311.334 38.7625 296.667 29.3824 283.576C10.0487 256.61 28.2265 104.126 42.3533 9.8508L41.7607 9.39718C27.6339 103.672 9.3939 256.523 28.7276 283.488C38.1885 296.687 61.2121 311.48 87.0113 324.729L87.0314 324.5L87.0414 324.5Z" fill="#A88700"/>
<path d="M81.2649 321.925C115.088 340.055 155.306 355.887 176.218 361.689C140.25 349.123 108.989 324.461 86.6109 281.879L81.2757 321.916L81.2649 321.925Z" fill="#FCFCFC"/>
<path d="M86.5998 281.888C67.0997 289.259 39.7916 295.694 30.2533 284.747C29.7064 284.116 28.9301 283.697 28.4192 282.999C28.5256 283.159 28.6203 283.338 28.7276 283.488C37.4821 295.702 57.8441 309.366 81.2646 321.925L86.5998 281.888Z" fill="url(#paint3_linear_83_127)"/>
<path d="M28.7277 283.488C50.1171 313.335 140.833 351.854 176.218 361.699C140.249 349.133 108.813 325.781 86.4346 283.199C65.8746 290.979 38.214 296.398 28.4284 283.01C28.5348 283.17 28.6295 283.349 28.7368 283.499L28.7277 283.488Z" fill="url(#paint4_linear_83_127)"/>
<path d="M321.232 48.3811C333.905 50.609 347.651 53.2022 358.219 55.8575C358.559 78.725 356.196 105.611 353.725 131.334C356.442 105.894 358.344 80.483 358.975 55.3718C346.312 52.9039 333.778 50.5678 321.232 48.3711L321.232 48.3811Z" fill="white"/>
</g>
<path style="mix-blend-mode:soft-light" opacity="0.2" d="M320.04 387.519C242.234 378.463 213.298 372.006 176.218 361.7C140.833 351.865 50.1263 313.347 28.7278 283.489C9.39412 256.523 27.5719 104.039 41.6987 9.76378C41.6987 9.76378 203.499 31.3602 257.43 38.5186C292.219 43.1317 325.12 48.7934 358.973 55.3821C358.048 92.072 354.426 129.408 349.485 166.558C342.131 221.797 320.04 387.519 320.04 387.519Z" fill="url(#paint5_linear_83_127)"/>
<path d="M178.884 72.7257C179.021 71.2103 177.899 69.8693 176.384 69.7319C174.859 69.5941 173.517 70.7157 173.39 72.2416C173.252 73.757 174.373 75.108 175.899 75.2358C177.415 75.3732 178.756 74.2516 178.894 72.7262L178.884 72.7257Z" fill="#060500" fill-opacity="0.62"/>
<path d="M195.696 55.9246L177.498 74.4056C175.864 75.3741 173.265 72.8163 174.065 71.03L192.262 52.559L195.686 55.9341L195.696 55.9246Z" fill="url(#paint6_linear_83_127)"/>
<path style="mix-blend-mode:multiply" d="M195.696 55.9246L177.498 74.4056C175.864 75.3741 173.265 72.8163 174.065 71.03L192.262 52.559L195.686 55.9341L195.696 55.9246Z" fill="url(#paint7_linear_83_127)"/>
<path d="M217.213 51.5147C217.484 61.8669 209.406 69.5262 199.157 68.6107C188.907 67.6952 180.374 58.5577 180.093 48.195C179.812 37.8424 187.9 30.1836 198.149 31.1091C208.398 32.0246 216.931 41.162 217.213 51.5147Z" fill="#8A0000"/>
<path d="M218.228 51.86C218.509 62.2126 210.422 69.8614 200.172 68.9459C189.923 68.0304 181.39 58.893 181.119 48.5407C180.838 38.1881 188.925 30.5293 199.174 31.4548C209.424 32.3703 217.957 41.5078 218.238 51.8604L218.228 51.86Z" fill="url(#paint8_radial_83_127)"/>
<path d="M217.161 51.7625C216.894 42.0011 208.848 33.3857 199.187 32.5163C198.868 32.4922 198.558 32.4884 198.248 32.4747C207.887 33.3731 215.894 41.9667 216.162 51.7082C216.414 61.1486 209.285 68.1893 200.08 67.8607C200.1 67.8616 200.12 67.8625 200.14 67.8634C209.801 68.7228 217.429 61.514 217.161 51.7525L217.161 51.7625Z" fill="#F87979"/>
<path d="M228.116 36.1134L207.482 57.6093C201.194 63.306 185.925 50.7664 192.21 43.5681L212.844 22.0721L228.116 36.1134Z" fill="url(#paint9_linear_83_127)"/>
<path d="M192.501 43.3205L212.873 22.0932L212.844 22.0619L192.211 43.5578C185.043 50.787 200.734 63.2753 207.462 57.6281C201.003 62.6466 186.331 50.4038 192.501 43.3205Z" fill="url(#paint10_linear_83_127)"/>
<path d="M233.887 32.1752C234.097 40.0523 227.943 45.8751 220.146 45.1786C212.349 44.4821 205.852 37.527 205.641 29.6499C205.44 21.7732 211.584 15.95 219.381 16.6466C227.178 17.3431 233.666 24.2977 233.887 32.1752Z" fill="#990000"/>
<path d="M233.631 31.6133C233.832 39.0295 228.044 44.4981 220.706 43.842C213.368 43.1859 207.262 36.6486 207.061 29.2324C206.869 21.8266 212.658 16.348 219.996 17.0041C227.334 17.6602 233.44 24.1975 233.641 31.6137L233.631 31.6133Z" fill="url(#paint11_linear_83_127)"/>
<path d="M232.984 31.5547C232.796 24.4995 226.986 18.2857 220.007 17.6555C219.688 17.6313 219.378 17.6276 219.068 17.6138C226.016 18.2626 231.796 24.4751 231.985 31.5004C232.166 38.2351 227.158 43.2679 220.636 43.1685C220.656 43.1694 220.676 43.1703 220.696 43.1712C227.676 43.7914 233.182 38.5905 232.984 31.5348L232.984 31.5547Z" fill="#FE9696"/>
<defs>
<filter id="filter0_d_83_127" x="0.123242" y="6.19697" width="367.441" height="406.522" filterUnits="userSpaceOnUse" color-interpolation-filters="sRGB">
<feFlood flood-opacity="0" result="BackgroundImageFix"/>
<feColorMatrix in="SourceAlpha" type="matrix" values="0 0 0 0 0 0 0 0 0 0 0 0 0 0 0 0 0 0 127 0" result="hardAlpha"/>
<feOffset dx="-6" dy="11"/>
<feGaussianBlur stdDeviation="7.1"/>
<feComposite in2="hardAlpha" operator="out"/>
<feColorMatrix type="matrix" values="0 0 0 0 0 0 0 0 0 0 0 0 0 0 0 0 0 0 0.25 0"/>
<feBlend mode="normal" in2="BackgroundImageFix" result="effect1_dropShadow_83_127"/>
<feBlend mode="normal" in="SourceGraphic" in2="effect1_dropShadow_83_127" result="shape"/>
</filter>
<linearGradient id="paint0_linear_83_127" x1="55.1174" y1="315.449" x2="340.513" y2="50.3505" gradientUnits="userSpaceOnUse">
<stop stop-color="#FFF199"/>
<stop offset="0.03" stop-color="#F7E789"/>
<stop offset="0.08" stop-color="#EFDC79"/>
<stop offset="0.12" stop-color="#EDD974"/>
<stop offset="0.34" stop-color="#FFF199"/>
<stop offset="0.59" stop-color="#FFF0A3"/>
<stop offset="0.82" stop-color="#FFEEAC"/>
<stop offset="0.87" stop-color="#FDEBA5"/>
<stop offset="0.93" stop-color="#F8E392"/>
<stop offset="1" stop-color="#F2DA79"/>
</linearGradient>
<radialGradient id="paint1_radial_83_127" cx="0" cy="0" r="1" gradientUnits="userSpaceOnUse" gradientTransform="translate(177.233 196.651) rotate(7.59192) scale(240.99 240.99)">
<stop stop-color="white"/>
<stop offset="0.09" stop-color="#F7F7F7"/>
<stop offset="0.22" stop-color="#E4E4E4"/>
<stop offset="0.37" stop-color="#C4C4C4"/>
<stop offset="0.54" stop-color="#979797"/>
<stop offset="0.73" stop-color="#5E5E5E"/>
<stop offset="0.93" stop-color="#1A1A1A"/>
<stop offset="1"/>
</radialGradient>
<linearGradient id="paint2_linear_83_127" x1="40.9417" y1="18.38" x2="360.112" y2="46.4268" gradientUnits="userSpaceOnUse">
<stop offset="0.79" stop-color="#DEB255"/>
<stop offset="1" stop-color="#C49E4A"/>
</linearGradient>
<linearGradient id="paint3_linear_83_127" x1="52.9591" y1="305.072" x2="75.3237" y2="273.823" gradientUnits="userSpaceOnUse">
<stop offset="0.11" stop-color="#A88700"/>
<stop offset="0.47" stop-color="#FFD11C"/>
<stop offset="1" stop-color="#AB8A00"/>
</linearGradient>
<linearGradient id="paint4_linear_83_127" x1="93.7681" y1="334.28" x2="115.451" y2="303.979" gradientUnits="userSpaceOnUse">
<stop stop-color="#DECB7F"/>
<stop offset="0.14" stop-color="#C9A000"/>
<stop offset="0.26" stop-color="#D6AE13"/>
<stop offset="0.51" stop-color="#F7D445"/>
<stop offset="0.56" stop-color="#FFDC50"/>
<stop offset="0.65" stop-color="#FFDC53"/>
<stop offset="0.74" stop-color="#FFDE5E"/>
<stop offset="0.82" stop-color="#FFE171"/>
<stop offset="0.9" stop-color="#FFE68B"/>
<stop offset="0.95" stop-color="#FFEAA1"/>
</linearGradient>
<linearGradient id="paint5_linear_83_127" x1="18.9799" y1="177.243" x2="342.311" y2="220.339" gradientUnits="userSpaceOnUse">
<stop/>
<stop offset="0.54" stop-color="white"/>
<stop offset="0.58" stop-color="#F7F7F7"/>
<stop offset="0.64" stop-color="#E4E4E4"/>
<stop offset="0.71" stop-color="#C4C4C4"/>
<stop offset="0.79" stop-color="#979797"/>
<stop offset="0.88" stop-color="#5E5E5E"/>
<stop offset="0.97" stop-color="#1A1A1A"/>
<stop offset="1"/>
</linearGradient>
<linearGradient id="paint6_linear_83_127" x1="185.464" y1="65.5678" x2="182.021" y2="62.1772" gradientUnits="userSpaceOnUse">
<stop stop-color="#696969"/>
<stop offset="0.26" stop-color="#FCFCFC"/>
<stop offset="0.55" stop-color="#D4D4D4"/>
<stop offset="0.78" stop-color="#434343"/>
<stop offset="0.82" stop-color="#474747"/>
<stop offset="0.87" stop-color="#535353"/>
<stop offset="0.91" stop-color="#676767"/>
<stop offset="0.96" stop-color="#848484"/>
<stop offset="1" stop-color="#A8A8A8"/>
</linearGradient>
<linearGradient id="paint7_linear_83_127" x1="180.9" y1="66.7581" x2="189.009" y2="58.5245" gradientUnits="userSpaceOnUse">
<stop stop-color="white"/>
<stop offset="1"/>
</linearGradient>
<radialGradient id="paint8_radial_83_127" cx="0" cy="0" r="1" gradientUnits="userSpaceOnUse" gradientTransform="translate(206.278 48.8025) rotate(5.11215) scale(35.18)">
<stop stop-color="#FF5555"/>
<stop offset="0.08" stop-color="#FA5151"/>
<stop offset="0.17" stop-color="#EE4747"/>
<stop offset="0.25" stop-color="#DA3636"/>
<stop offset="0.34" stop-color="#BD1E1E"/>
<stop offset="0.42" stop-color="#990000"/>
<stop offset="0.53" stop-color="#A80000"/>
<stop offset="0.67" stop-color="#DD3636"/>
<stop offset="0.83" stop-color="#8C0000"/>
</radialGradient>
<linearGradient id="paint9_linear_83_127" x1="200.138" y1="34.268" x2="215.983" y2="50.1831" gradientUnits="userSpaceOnUse">
<stop stop-color="#B40000"/>
<stop offset="0.08" stop-color="#A20000"/>
<stop offset="0.16" stop-color="#960000"/>
<stop offset="0.25" stop-color="#920000"/>
<stop offset="0.58" stop-color="#B40000"/>
<stop offset="0.87" stop-color="#FF8484"/>
<stop offset="1" stop-color="#AD2828"/>
</linearGradient>
<linearGradient id="paint10_linear_83_127" x1="199.917" y1="34.9506" x2="215.006" y2="50.1055" gradientUnits="userSpaceOnUse">
<stop stop-color="#900000"/>
<stop offset="0.06" stop-color="#850000"/>
<stop offset="0.15" stop-color="#790000"/>
<stop offset="0.25" stop-color="#750000"/>
<stop offset="0.58" stop-color="#900000"/>
<stop offset="0.87" stop-color="#DE5757"/>
<stop offset="1" stop-color="#9E0C0C"/>
</linearGradient>
<linearGradient id="paint11_linear_83_127" x1="210.373" y1="20.4146" x2="230.318" y2="40.4414" gradientUnits="userSpaceOnUse">
<stop stop-color="#D10606"/>
<stop offset="0.11" stop-color="#DA1717"/>
<stop offset="0.34" stop-color="#E83434"/>
<stop offset="0.56" stop-color="#F34848"/>
<stop offset="0.78" stop-color="#F95454"/>
<stop offset="1" stop-color="#FC5959"/>
</linearGradient>
</defs>
</svg>
